<mxfile host="app.diagrams.net" agent="Mozilla/5.0 (Windows NT 10.0; Win64; x64) AppleWebKit/537.36 (KHTML, like Gecko) Chrome/131.0.0.0 Safari/537.36" version="25.0.3">
  <diagram id="RbT6SCevQHZDdhUw1p6O" name="Page-1">
    <mxGraphModel dx="1687" dy="831" grid="1" gridSize="10" guides="1" tooltips="1" connect="1" arrows="1" fold="1" page="1" pageScale="1" pageWidth="850" pageHeight="1100" math="0" shadow="0">
      <root>
        <mxCell id="0" />
        <mxCell id="1" parent="0" />
        <mxCell id="NJn-q_vK891O38DvYf-i-105" value="" style="rounded=0;whiteSpace=wrap;html=1;strokeColor=#2B4FFF;dashed=1;" parent="1" vertex="1">
          <mxGeometry x="160" y="460" width="1400" height="790" as="geometry" />
        </mxCell>
        <mxCell id="JZoax5kqEpvpaWr4Enbw-1" value="line_buffer_2" style="rounded=0;whiteSpace=wrap;html=1;" parent="1" vertex="1">
          <mxGeometry x="470" y="520" width="120" height="40" as="geometry" />
        </mxCell>
        <mxCell id="JZoax5kqEpvpaWr4Enbw-2" value="" style="endArrow=classic;html=1;rounded=0;exitX=1;exitY=0.5;exitDx=0;exitDy=0;" parent="1" source="JZoax5kqEpvpaWr4Enbw-1" target="JZoax5kqEpvpaWr4Enbw-3" edge="1">
          <mxGeometry width="50" height="50" relative="1" as="geometry">
            <mxPoint x="610" y="590" as="sourcePoint" />
            <mxPoint x="630" y="540" as="targetPoint" />
          </mxGeometry>
        </mxCell>
        <mxCell id="JZoax5kqEpvpaWr4Enbw-3" value="line_buffer_3" style="rounded=0;whiteSpace=wrap;html=1;" parent="1" vertex="1">
          <mxGeometry x="750" y="520" width="120" height="40" as="geometry" />
        </mxCell>
        <mxCell id="JZoax5kqEpvpaWr4Enbw-4" value="line_buffer_4" style="rounded=0;whiteSpace=wrap;html=1;" parent="1" vertex="1">
          <mxGeometry x="1060" y="520" width="120" height="40" as="geometry" />
        </mxCell>
        <mxCell id="JZoax5kqEpvpaWr4Enbw-5" value="" style="endArrow=classic;html=1;rounded=0;entryX=0;entryY=0.5;entryDx=0;entryDy=0;exitX=1;exitY=0.5;exitDx=0;exitDy=0;" parent="1" source="JZoax5kqEpvpaWr4Enbw-3" target="JZoax5kqEpvpaWr4Enbw-4" edge="1">
          <mxGeometry width="50" height="50" relative="1" as="geometry">
            <mxPoint x="650" y="640" as="sourcePoint" />
            <mxPoint x="700" y="590" as="targetPoint" />
          </mxGeometry>
        </mxCell>
        <mxCell id="JZoax5kqEpvpaWr4Enbw-12" value="" style="endArrow=classic;html=1;rounded=0;" parent="1" edge="1">
          <mxGeometry width="50" height="50" relative="1" as="geometry">
            <mxPoint x="700" y="540" as="sourcePoint" />
            <mxPoint x="760" y="640" as="targetPoint" />
            <Array as="points">
              <mxPoint x="700" y="640" />
            </Array>
          </mxGeometry>
        </mxCell>
        <mxCell id="JZoax5kqEpvpaWr4Enbw-13" value="d8" style="rounded=0;whiteSpace=wrap;html=1;" parent="1" vertex="1">
          <mxGeometry x="760" y="620" width="40" height="40" as="geometry" />
        </mxCell>
        <mxCell id="JZoax5kqEpvpaWr4Enbw-14" value="" style="endArrow=classic;html=1;rounded=0;exitX=1;exitY=0.5;exitDx=0;exitDy=0;" parent="1" source="JZoax5kqEpvpaWr4Enbw-13" edge="1">
          <mxGeometry width="50" height="50" relative="1" as="geometry">
            <mxPoint x="820" y="640" as="sourcePoint" />
            <mxPoint x="840" y="640" as="targetPoint" />
          </mxGeometry>
        </mxCell>
        <mxCell id="JZoax5kqEpvpaWr4Enbw-15" value="d7" style="rounded=0;whiteSpace=wrap;html=1;" parent="1" vertex="1">
          <mxGeometry x="840" y="620" width="40" height="40" as="geometry" />
        </mxCell>
        <mxCell id="JZoax5kqEpvpaWr4Enbw-16" value="d6" style="rounded=0;whiteSpace=wrap;html=1;" parent="1" vertex="1">
          <mxGeometry x="920" y="620" width="40" height="40" as="geometry" />
        </mxCell>
        <mxCell id="JZoax5kqEpvpaWr4Enbw-17" value="" style="endArrow=classic;html=1;rounded=0;exitX=1;exitY=0.5;exitDx=0;exitDy=0;entryX=0;entryY=0.5;entryDx=0;entryDy=0;" parent="1" source="JZoax5kqEpvpaWr4Enbw-15" target="JZoax5kqEpvpaWr4Enbw-16" edge="1">
          <mxGeometry width="50" height="50" relative="1" as="geometry">
            <mxPoint x="910" y="620" as="sourcePoint" />
            <mxPoint x="960" y="570" as="targetPoint" />
          </mxGeometry>
        </mxCell>
        <mxCell id="JZoax5kqEpvpaWr4Enbw-18" value="" style="endArrow=classic;html=1;rounded=0;" parent="1" edge="1">
          <mxGeometry width="50" height="50" relative="1" as="geometry">
            <mxPoint x="980" y="540" as="sourcePoint" />
            <mxPoint x="1040" y="640" as="targetPoint" />
            <Array as="points">
              <mxPoint x="980" y="640" />
            </Array>
          </mxGeometry>
        </mxCell>
        <mxCell id="JZoax5kqEpvpaWr4Enbw-19" value="d5" style="rounded=0;whiteSpace=wrap;html=1;" parent="1" vertex="1">
          <mxGeometry x="1040" y="620" width="40" height="40" as="geometry" />
        </mxCell>
        <mxCell id="JZoax5kqEpvpaWr4Enbw-20" value="" style="endArrow=classic;html=1;rounded=0;exitX=1;exitY=0.5;exitDx=0;exitDy=0;" parent="1" source="JZoax5kqEpvpaWr4Enbw-19" edge="1">
          <mxGeometry width="50" height="50" relative="1" as="geometry">
            <mxPoint x="1100" y="640" as="sourcePoint" />
            <mxPoint x="1120" y="640" as="targetPoint" />
          </mxGeometry>
        </mxCell>
        <mxCell id="JZoax5kqEpvpaWr4Enbw-21" value="d4" style="rounded=0;whiteSpace=wrap;html=1;" parent="1" vertex="1">
          <mxGeometry x="1120" y="620" width="40" height="40" as="geometry" />
        </mxCell>
        <mxCell id="JZoax5kqEpvpaWr4Enbw-22" value="d3" style="rounded=0;whiteSpace=wrap;html=1;" parent="1" vertex="1">
          <mxGeometry x="1200" y="620" width="40" height="40" as="geometry" />
        </mxCell>
        <mxCell id="JZoax5kqEpvpaWr4Enbw-23" value="" style="endArrow=classic;html=1;rounded=0;exitX=1;exitY=0.5;exitDx=0;exitDy=0;entryX=0;entryY=0.5;entryDx=0;entryDy=0;" parent="1" source="JZoax5kqEpvpaWr4Enbw-21" target="JZoax5kqEpvpaWr4Enbw-22" edge="1">
          <mxGeometry width="50" height="50" relative="1" as="geometry">
            <mxPoint x="1190" y="620" as="sourcePoint" />
            <mxPoint x="1240" y="570" as="targetPoint" />
          </mxGeometry>
        </mxCell>
        <mxCell id="JZoax5kqEpvpaWr4Enbw-24" value="d2" style="rounded=0;whiteSpace=wrap;html=1;" parent="1" vertex="1">
          <mxGeometry x="1250" y="520" width="40" height="40" as="geometry" />
        </mxCell>
        <mxCell id="JZoax5kqEpvpaWr4Enbw-25" value="" style="endArrow=classic;html=1;rounded=0;exitX=1;exitY=0.5;exitDx=0;exitDy=0;" parent="1" source="JZoax5kqEpvpaWr4Enbw-24" edge="1">
          <mxGeometry width="50" height="50" relative="1" as="geometry">
            <mxPoint x="1310" y="540" as="sourcePoint" />
            <mxPoint x="1330" y="540" as="targetPoint" />
          </mxGeometry>
        </mxCell>
        <mxCell id="JZoax5kqEpvpaWr4Enbw-26" value="d1" style="rounded=0;whiteSpace=wrap;html=1;" parent="1" vertex="1">
          <mxGeometry x="1330" y="520" width="40" height="40" as="geometry" />
        </mxCell>
        <mxCell id="JZoax5kqEpvpaWr4Enbw-27" value="d0" style="rounded=0;whiteSpace=wrap;html=1;" parent="1" vertex="1">
          <mxGeometry x="1410" y="520" width="40" height="40" as="geometry" />
        </mxCell>
        <mxCell id="JZoax5kqEpvpaWr4Enbw-28" value="" style="endArrow=classic;html=1;rounded=0;exitX=1;exitY=0.5;exitDx=0;exitDy=0;entryX=0;entryY=0.5;entryDx=0;entryDy=0;" parent="1" source="JZoax5kqEpvpaWr4Enbw-26" target="JZoax5kqEpvpaWr4Enbw-27" edge="1">
          <mxGeometry width="50" height="50" relative="1" as="geometry">
            <mxPoint x="1400" y="520" as="sourcePoint" />
            <mxPoint x="1450" y="470" as="targetPoint" />
          </mxGeometry>
        </mxCell>
        <mxCell id="JZoax5kqEpvpaWr4Enbw-29" value="" style="endArrow=classic;html=1;rounded=0;entryX=0;entryY=0.5;entryDx=0;entryDy=0;exitX=1.019;exitY=0.503;exitDx=0;exitDy=0;exitPerimeter=0;" parent="1" source="JZoax5kqEpvpaWr4Enbw-4" target="JZoax5kqEpvpaWr4Enbw-24" edge="1">
          <mxGeometry width="50" height="50" relative="1" as="geometry">
            <mxPoint x="1250" y="559" as="sourcePoint" />
            <mxPoint x="1440" y="559" as="targetPoint" />
          </mxGeometry>
        </mxCell>
        <mxCell id="NJn-q_vK891O38DvYf-i-3" value="" style="endArrow=classic;html=1;rounded=0;entryX=0;entryY=0.375;entryDx=0;entryDy=0;entryPerimeter=0;" parent="1" target="NJn-q_vK891O38DvYf-i-4" edge="1">
          <mxGeometry width="50" height="50" relative="1" as="geometry">
            <mxPoint x="140" y="590" as="sourcePoint" />
            <mxPoint x="260" y="590" as="targetPoint" />
          </mxGeometry>
        </mxCell>
        <mxCell id="NJn-q_vK891O38DvYf-i-4" value="Controller" style="rounded=0;whiteSpace=wrap;html=1;" parent="1" vertex="1">
          <mxGeometry x="260" y="560" width="160" height="80" as="geometry" />
        </mxCell>
        <mxCell id="NJn-q_vK891O38DvYf-i-5" value="" style="endArrow=classic;html=1;rounded=0;entryX=-0.003;entryY=0.623;entryDx=0;entryDy=0;entryPerimeter=0;" parent="1" target="NJn-q_vK891O38DvYf-i-4" edge="1">
          <mxGeometry width="50" height="50" relative="1" as="geometry">
            <mxPoint x="140" y="610" as="sourcePoint" />
            <mxPoint x="170" y="620" as="targetPoint" />
          </mxGeometry>
        </mxCell>
        <mxCell id="NJn-q_vK891O38DvYf-i-6" value="" style="endArrow=classic;html=1;rounded=0;entryX=-0.003;entryY=0.623;entryDx=0;entryDy=0;entryPerimeter=0;" parent="1" edge="1">
          <mxGeometry width="50" height="50" relative="1" as="geometry">
            <mxPoint x="140" y="630" as="sourcePoint" />
            <mxPoint x="260" y="629.89" as="targetPoint" />
          </mxGeometry>
        </mxCell>
        <mxCell id="NJn-q_vK891O38DvYf-i-7" value="clk" style="text;html=1;align=center;verticalAlign=middle;whiteSpace=wrap;rounded=0;" parent="1" vertex="1">
          <mxGeometry x="70" y="570" width="60" height="30" as="geometry" />
        </mxCell>
        <mxCell id="NJn-q_vK891O38DvYf-i-8" value="rst_n" style="text;html=1;align=center;verticalAlign=middle;whiteSpace=wrap;rounded=0;" parent="1" vertex="1">
          <mxGeometry x="70" y="590" width="60" height="30" as="geometry" />
        </mxCell>
        <mxCell id="NJn-q_vK891O38DvYf-i-9" value="i_valid" style="text;html=1;align=center;verticalAlign=middle;whiteSpace=wrap;rounded=0;" parent="1" vertex="1">
          <mxGeometry x="70" y="615" width="60" height="30" as="geometry" />
        </mxCell>
        <mxCell id="NJn-q_vK891O38DvYf-i-10" value="" style="endArrow=classic;html=1;rounded=0;exitX=0.875;exitY=0;exitDx=0;exitDy=0;exitPerimeter=0;" parent="1" source="NJn-q_vK891O38DvYf-i-4" edge="1">
          <mxGeometry width="50" height="50" relative="1" as="geometry">
            <mxPoint x="400" y="558" as="sourcePoint" />
            <mxPoint x="400" y="490" as="targetPoint" />
          </mxGeometry>
        </mxCell>
        <mxCell id="NJn-q_vK891O38DvYf-i-11" value="" style="endArrow=classic;html=1;rounded=0;" parent="1" edge="1">
          <mxGeometry width="50" height="50" relative="1" as="geometry">
            <mxPoint x="390" y="680" as="sourcePoint" />
            <mxPoint x="390" y="640" as="targetPoint" />
          </mxGeometry>
        </mxCell>
        <mxCell id="NJn-q_vK891O38DvYf-i-12" value="" style="endArrow=classic;html=1;rounded=0;exitX=0.877;exitY=-0.024;exitDx=0;exitDy=0;exitPerimeter=0;" parent="1" edge="1">
          <mxGeometry width="50" height="50" relative="1" as="geometry">
            <mxPoint x="300" y="560" as="sourcePoint" />
            <mxPoint x="300" y="430" as="targetPoint" />
          </mxGeometry>
        </mxCell>
        <mxCell id="NJn-q_vK891O38DvYf-i-13" value="o_valid" style="text;html=1;align=center;verticalAlign=middle;whiteSpace=wrap;rounded=0;" parent="1" vertex="1">
          <mxGeometry x="260" y="390" width="60" height="30" as="geometry" />
        </mxCell>
        <mxCell id="NJn-q_vK891O38DvYf-i-15" value="start" style="text;html=1;align=center;verticalAlign=middle;whiteSpace=wrap;rounded=0;" parent="1" vertex="1">
          <mxGeometry x="370" y="470" width="60" height="20" as="geometry" />
        </mxCell>
        <mxCell id="NJn-q_vK891O38DvYf-i-26" value="=" style="rounded=0;whiteSpace=wrap;html=1;" parent="1" vertex="1">
          <mxGeometry x="450" y="940" width="120" height="60" as="geometry" />
        </mxCell>
        <mxCell id="NJn-q_vK891O38DvYf-i-27" value="" style="endArrow=classic;html=1;rounded=0;entryX=0.166;entryY=-0.003;entryDx=0;entryDy=0;entryPerimeter=0;" parent="1" target="NJn-q_vK891O38DvYf-i-26" edge="1">
          <mxGeometry width="50" height="50" relative="1" as="geometry">
            <mxPoint x="470" y="900" as="sourcePoint" />
            <mxPoint x="480" y="860" as="targetPoint" />
          </mxGeometry>
        </mxCell>
        <mxCell id="NJn-q_vK891O38DvYf-i-28" value="i_row" style="text;html=1;align=center;verticalAlign=middle;whiteSpace=wrap;rounded=0;" parent="1" vertex="1">
          <mxGeometry x="440" y="870" width="60" height="30" as="geometry" />
        </mxCell>
        <mxCell id="NJn-q_vK891O38DvYf-i-29" value="" style="endArrow=classic;html=1;rounded=0;entryX=0.166;entryY=-0.003;entryDx=0;entryDy=0;entryPerimeter=0;" parent="1" edge="1">
          <mxGeometry width="50" height="50" relative="1" as="geometry">
            <mxPoint x="540" y="900" as="sourcePoint" />
            <mxPoint x="540" y="940" as="targetPoint" />
          </mxGeometry>
        </mxCell>
        <mxCell id="NJn-q_vK891O38DvYf-i-30" value="ROWS - 1" style="text;html=1;align=center;verticalAlign=middle;whiteSpace=wrap;rounded=0;" parent="1" vertex="1">
          <mxGeometry x="510" y="870" width="60" height="30" as="geometry" />
        </mxCell>
        <mxCell id="NJn-q_vK891O38DvYf-i-31" value="" style="endArrow=classic;html=1;rounded=0;exitX=0.5;exitY=1;exitDx=0;exitDy=0;entryX=1;entryY=0.5;entryDx=0;entryDy=0;" parent="1" source="NJn-q_vK891O38DvYf-i-26" target="NJn-q_vK891O38DvYf-i-33" edge="1">
          <mxGeometry width="50" height="50" relative="1" as="geometry">
            <mxPoint x="500" y="1060" as="sourcePoint" />
            <mxPoint x="510" y="1050" as="targetPoint" />
            <Array as="points">
              <mxPoint x="510" y="1060" />
            </Array>
          </mxGeometry>
        </mxCell>
        <mxCell id="NJn-q_vK891O38DvYf-i-33" value="" style="shape=trapezoid;perimeter=trapezoidPerimeter;whiteSpace=wrap;html=1;fixedSize=1;rotation=180;" parent="1" vertex="1">
          <mxGeometry x="590" y="1030" width="110" height="60" as="geometry" />
        </mxCell>
        <mxCell id="NJn-q_vK891O38DvYf-i-34" value="0" style="text;html=1;align=center;verticalAlign=middle;whiteSpace=wrap;rounded=0;" parent="1" vertex="1">
          <mxGeometry x="590" y="1030" width="60" height="30" as="geometry" />
        </mxCell>
        <mxCell id="NJn-q_vK891O38DvYf-i-35" value="1" style="text;html=1;align=center;verticalAlign=middle;whiteSpace=wrap;rounded=0;" parent="1" vertex="1">
          <mxGeometry x="640" y="1030" width="60" height="30" as="geometry" />
        </mxCell>
        <mxCell id="NJn-q_vK891O38DvYf-i-36" value="" style="endArrow=classic;html=1;rounded=0;entryX=0.5;entryY=0;entryDx=0;entryDy=0;" parent="1" target="NJn-q_vK891O38DvYf-i-35" edge="1">
          <mxGeometry width="50" height="50" relative="1" as="geometry">
            <mxPoint x="670" y="980" as="sourcePoint" />
            <mxPoint x="740" y="945" as="targetPoint" />
          </mxGeometry>
        </mxCell>
        <mxCell id="NJn-q_vK891O38DvYf-i-37" value="" style="endArrow=classic;html=1;rounded=0;entryX=0.5;entryY=0;entryDx=0;entryDy=0;exitX=0.5;exitY=1;exitDx=0;exitDy=0;" parent="1" source="NJn-q_vK891O38DvYf-i-40" target="NJn-q_vK891O38DvYf-i-34" edge="1">
          <mxGeometry width="50" height="50" relative="1" as="geometry">
            <mxPoint x="610" y="900" as="sourcePoint" />
            <mxPoint x="635" y="910" as="targetPoint" />
          </mxGeometry>
        </mxCell>
        <mxCell id="NJn-q_vK891O38DvYf-i-38" value="0" style="text;html=1;align=center;verticalAlign=middle;whiteSpace=wrap;rounded=0;" parent="1" vertex="1">
          <mxGeometry x="640" y="950" width="60" height="30" as="geometry" />
        </mxCell>
        <mxCell id="NJn-q_vK891O38DvYf-i-39" value="" style="endArrow=classic;html=1;rounded=0;exitX=0.5;exitY=0;exitDx=0;exitDy=0;" parent="1" source="NJn-q_vK891O38DvYf-i-33" edge="1">
          <mxGeometry width="50" height="50" relative="1" as="geometry">
            <mxPoint x="670" y="1180" as="sourcePoint" />
            <mxPoint x="645" y="1180" as="targetPoint" />
          </mxGeometry>
        </mxCell>
        <mxCell id="NJn-q_vK891O38DvYf-i-40" value="+1" style="rounded=0;whiteSpace=wrap;html=1;" parent="1" vertex="1">
          <mxGeometry x="590" y="840" width="60" height="60" as="geometry" />
        </mxCell>
        <mxCell id="NJn-q_vK891O38DvYf-i-41" value="" style="triangle;whiteSpace=wrap;html=1;" parent="1" vertex="1">
          <mxGeometry x="590" y="860" width="20" height="20" as="geometry" />
        </mxCell>
        <mxCell id="NJn-q_vK891O38DvYf-i-42" value="" style="endArrow=classic;html=1;rounded=0;entryX=1.034;entryY=0.583;entryDx=0;entryDy=0;entryPerimeter=0;" parent="1" edge="1">
          <mxGeometry width="50" height="50" relative="1" as="geometry">
            <mxPoint x="677.96" y="890.02" as="sourcePoint" />
            <mxPoint x="650" y="890" as="targetPoint" />
          </mxGeometry>
        </mxCell>
        <mxCell id="NJn-q_vK891O38DvYf-i-43" value="o_valid &amp;amp; (i_col == COLS - 1)" style="text;html=1;align=center;verticalAlign=middle;whiteSpace=wrap;rounded=0;" parent="1" vertex="1">
          <mxGeometry x="660" y="860" width="130" height="30" as="geometry" />
        </mxCell>
        <mxCell id="NJn-q_vK891O38DvYf-i-44" value="" style="endArrow=classic;html=1;rounded=0;entryX=0.166;entryY=-0.003;entryDx=0;entryDy=0;entryPerimeter=0;" parent="1" edge="1">
          <mxGeometry width="50" height="50" relative="1" as="geometry">
            <mxPoint x="620" y="800" as="sourcePoint" />
            <mxPoint x="620" y="840" as="targetPoint" />
          </mxGeometry>
        </mxCell>
        <mxCell id="NJn-q_vK891O38DvYf-i-45" value="i_row [9:0]" style="text;html=1;align=center;verticalAlign=middle;whiteSpace=wrap;rounded=0;" parent="1" vertex="1">
          <mxGeometry x="590" y="770" width="60" height="30" as="geometry" />
        </mxCell>
        <mxCell id="NJn-q_vK891O38DvYf-i-46" value="i_row [9:0]" style="text;html=1;align=center;verticalAlign=middle;whiteSpace=wrap;rounded=0;" parent="1" vertex="1">
          <mxGeometry x="650" y="1150" width="60" height="30" as="geometry" />
        </mxCell>
        <mxCell id="NJn-q_vK891O38DvYf-i-47" value="=" style="rounded=0;whiteSpace=wrap;html=1;" parent="1" vertex="1">
          <mxGeometry x="810" y="940" width="120" height="60" as="geometry" />
        </mxCell>
        <mxCell id="NJn-q_vK891O38DvYf-i-48" value="" style="endArrow=classic;html=1;rounded=0;entryX=0.166;entryY=-0.003;entryDx=0;entryDy=0;entryPerimeter=0;" parent="1" target="NJn-q_vK891O38DvYf-i-47" edge="1">
          <mxGeometry width="50" height="50" relative="1" as="geometry">
            <mxPoint x="830" y="900" as="sourcePoint" />
            <mxPoint x="840" y="860" as="targetPoint" />
          </mxGeometry>
        </mxCell>
        <mxCell id="NJn-q_vK891O38DvYf-i-50" value="" style="endArrow=classic;html=1;rounded=0;entryX=0.166;entryY=-0.003;entryDx=0;entryDy=0;entryPerimeter=0;" parent="1" edge="1">
          <mxGeometry width="50" height="50" relative="1" as="geometry">
            <mxPoint x="900" y="900" as="sourcePoint" />
            <mxPoint x="900" y="940" as="targetPoint" />
          </mxGeometry>
        </mxCell>
        <mxCell id="NJn-q_vK891O38DvYf-i-51" value="COLS - 1" style="text;html=1;align=center;verticalAlign=middle;whiteSpace=wrap;rounded=0;" parent="1" vertex="1">
          <mxGeometry x="870" y="870" width="60" height="30" as="geometry" />
        </mxCell>
        <mxCell id="NJn-q_vK891O38DvYf-i-52" value="" style="endArrow=classic;html=1;rounded=0;exitX=0.5;exitY=1;exitDx=0;exitDy=0;entryX=1;entryY=0.5;entryDx=0;entryDy=0;" parent="1" source="NJn-q_vK891O38DvYf-i-47" target="NJn-q_vK891O38DvYf-i-53" edge="1">
          <mxGeometry width="50" height="50" relative="1" as="geometry">
            <mxPoint x="860" y="1060" as="sourcePoint" />
            <mxPoint x="870" y="1050" as="targetPoint" />
            <Array as="points">
              <mxPoint x="870" y="1060" />
            </Array>
          </mxGeometry>
        </mxCell>
        <mxCell id="NJn-q_vK891O38DvYf-i-53" value="" style="shape=trapezoid;perimeter=trapezoidPerimeter;whiteSpace=wrap;html=1;fixedSize=1;rotation=180;" parent="1" vertex="1">
          <mxGeometry x="950" y="1030" width="110" height="60" as="geometry" />
        </mxCell>
        <mxCell id="NJn-q_vK891O38DvYf-i-54" value="0" style="text;html=1;align=center;verticalAlign=middle;whiteSpace=wrap;rounded=0;" parent="1" vertex="1">
          <mxGeometry x="950" y="1030" width="60" height="30" as="geometry" />
        </mxCell>
        <mxCell id="NJn-q_vK891O38DvYf-i-55" value="1" style="text;html=1;align=center;verticalAlign=middle;whiteSpace=wrap;rounded=0;" parent="1" vertex="1">
          <mxGeometry x="1000" y="1030" width="60" height="30" as="geometry" />
        </mxCell>
        <mxCell id="NJn-q_vK891O38DvYf-i-56" value="" style="endArrow=classic;html=1;rounded=0;entryX=0.5;entryY=0;entryDx=0;entryDy=0;" parent="1" target="NJn-q_vK891O38DvYf-i-55" edge="1">
          <mxGeometry width="50" height="50" relative="1" as="geometry">
            <mxPoint x="1030" y="980" as="sourcePoint" />
            <mxPoint x="1100" y="945" as="targetPoint" />
          </mxGeometry>
        </mxCell>
        <mxCell id="NJn-q_vK891O38DvYf-i-57" value="" style="endArrow=classic;html=1;rounded=0;entryX=0.5;entryY=0;entryDx=0;entryDy=0;exitX=0.5;exitY=1;exitDx=0;exitDy=0;" parent="1" source="NJn-q_vK891O38DvYf-i-60" target="NJn-q_vK891O38DvYf-i-54" edge="1">
          <mxGeometry width="50" height="50" relative="1" as="geometry">
            <mxPoint x="970" y="900" as="sourcePoint" />
            <mxPoint x="995" y="910" as="targetPoint" />
          </mxGeometry>
        </mxCell>
        <mxCell id="NJn-q_vK891O38DvYf-i-58" value="0" style="text;html=1;align=center;verticalAlign=middle;whiteSpace=wrap;rounded=0;" parent="1" vertex="1">
          <mxGeometry x="1000" y="950" width="60" height="30" as="geometry" />
        </mxCell>
        <mxCell id="NJn-q_vK891O38DvYf-i-59" value="" style="endArrow=classic;html=1;rounded=0;exitX=0.5;exitY=0;exitDx=0;exitDy=0;" parent="1" source="NJn-q_vK891O38DvYf-i-53" edge="1">
          <mxGeometry width="50" height="50" relative="1" as="geometry">
            <mxPoint x="1030" y="1180" as="sourcePoint" />
            <mxPoint x="1005" y="1180" as="targetPoint" />
          </mxGeometry>
        </mxCell>
        <mxCell id="NJn-q_vK891O38DvYf-i-60" value="+1" style="rounded=0;whiteSpace=wrap;html=1;" parent="1" vertex="1">
          <mxGeometry x="950" y="840" width="60" height="60" as="geometry" />
        </mxCell>
        <mxCell id="NJn-q_vK891O38DvYf-i-61" value="" style="triangle;whiteSpace=wrap;html=1;" parent="1" vertex="1">
          <mxGeometry x="950" y="860" width="20" height="20" as="geometry" />
        </mxCell>
        <mxCell id="NJn-q_vK891O38DvYf-i-62" value="" style="endArrow=classic;html=1;rounded=0;entryX=1.034;entryY=0.583;entryDx=0;entryDy=0;entryPerimeter=0;" parent="1" target="NJn-q_vK891O38DvYf-i-60" edge="1">
          <mxGeometry width="50" height="50" relative="1" as="geometry">
            <mxPoint x="1040" y="875" as="sourcePoint" />
            <mxPoint x="1090" y="870" as="targetPoint" />
          </mxGeometry>
        </mxCell>
        <mxCell id="NJn-q_vK891O38DvYf-i-63" value="o_valid" style="text;html=1;align=center;verticalAlign=middle;whiteSpace=wrap;rounded=0;" parent="1" vertex="1">
          <mxGeometry x="1020" y="850" width="60" height="30" as="geometry" />
        </mxCell>
        <mxCell id="NJn-q_vK891O38DvYf-i-64" value="" style="endArrow=classic;html=1;rounded=0;entryX=0.166;entryY=-0.003;entryDx=0;entryDy=0;entryPerimeter=0;" parent="1" edge="1">
          <mxGeometry width="50" height="50" relative="1" as="geometry">
            <mxPoint x="980" y="800" as="sourcePoint" />
            <mxPoint x="980" y="840" as="targetPoint" />
          </mxGeometry>
        </mxCell>
        <mxCell id="NJn-q_vK891O38DvYf-i-65" value="i_col [9:0]" style="text;html=1;align=center;verticalAlign=middle;whiteSpace=wrap;rounded=0;" parent="1" vertex="1">
          <mxGeometry x="950" y="770" width="60" height="30" as="geometry" />
        </mxCell>
        <mxCell id="NJn-q_vK891O38DvYf-i-70" value="" style="endArrow=classic;html=1;rounded=0;" parent="1" edge="1">
          <mxGeometry width="50" height="50" relative="1" as="geometry">
            <mxPoint x="339.26" y="680" as="sourcePoint" />
            <mxPoint x="339.26" y="640" as="targetPoint" />
          </mxGeometry>
        </mxCell>
        <mxCell id="NJn-q_vK891O38DvYf-i-71" value="=" style="rounded=0;whiteSpace=wrap;html=1;" parent="1" vertex="1">
          <mxGeometry x="1090" y="940" width="120" height="60" as="geometry" />
        </mxCell>
        <mxCell id="NJn-q_vK891O38DvYf-i-72" value="" style="endArrow=classic;html=1;rounded=0;entryX=0.166;entryY=-0.003;entryDx=0;entryDy=0;entryPerimeter=0;" parent="1" target="NJn-q_vK891O38DvYf-i-71" edge="1">
          <mxGeometry width="50" height="50" relative="1" as="geometry">
            <mxPoint x="1110" y="900" as="sourcePoint" />
            <mxPoint x="1120" y="860" as="targetPoint" />
          </mxGeometry>
        </mxCell>
        <mxCell id="NJn-q_vK891O38DvYf-i-73" value="i_counter [2:0]" style="text;html=1;align=center;verticalAlign=middle;whiteSpace=wrap;rounded=0;" parent="1" vertex="1">
          <mxGeometry x="1080" y="870" width="60" height="30" as="geometry" />
        </mxCell>
        <mxCell id="NJn-q_vK891O38DvYf-i-74" value="" style="endArrow=classic;html=1;rounded=0;entryX=0.166;entryY=-0.003;entryDx=0;entryDy=0;entryPerimeter=0;" parent="1" edge="1">
          <mxGeometry width="50" height="50" relative="1" as="geometry">
            <mxPoint x="1180" y="900" as="sourcePoint" />
            <mxPoint x="1180" y="940" as="targetPoint" />
          </mxGeometry>
        </mxCell>
        <mxCell id="NJn-q_vK891O38DvYf-i-75" value="2" style="text;html=1;align=center;verticalAlign=middle;whiteSpace=wrap;rounded=0;" parent="1" vertex="1">
          <mxGeometry x="1150" y="870" width="60" height="30" as="geometry" />
        </mxCell>
        <mxCell id="NJn-q_vK891O38DvYf-i-76" value="" style="endArrow=classic;html=1;rounded=0;exitX=0.5;exitY=1;exitDx=0;exitDy=0;entryX=1;entryY=0.5;entryDx=0;entryDy=0;" parent="1" source="NJn-q_vK891O38DvYf-i-71" target="NJn-q_vK891O38DvYf-i-77" edge="1">
          <mxGeometry width="50" height="50" relative="1" as="geometry">
            <mxPoint x="1140" y="1060" as="sourcePoint" />
            <mxPoint x="1150" y="1050" as="targetPoint" />
            <Array as="points">
              <mxPoint x="1150" y="1060" />
            </Array>
          </mxGeometry>
        </mxCell>
        <mxCell id="NJn-q_vK891O38DvYf-i-77" value="" style="shape=trapezoid;perimeter=trapezoidPerimeter;whiteSpace=wrap;html=1;fixedSize=1;rotation=180;" parent="1" vertex="1">
          <mxGeometry x="1230" y="1030" width="110" height="60" as="geometry" />
        </mxCell>
        <mxCell id="NJn-q_vK891O38DvYf-i-78" value="0" style="text;html=1;align=center;verticalAlign=middle;whiteSpace=wrap;rounded=0;" parent="1" vertex="1">
          <mxGeometry x="1230" y="1030" width="60" height="30" as="geometry" />
        </mxCell>
        <mxCell id="NJn-q_vK891O38DvYf-i-79" value="1" style="text;html=1;align=center;verticalAlign=middle;whiteSpace=wrap;rounded=0;" parent="1" vertex="1">
          <mxGeometry x="1280" y="1030" width="60" height="30" as="geometry" />
        </mxCell>
        <mxCell id="NJn-q_vK891O38DvYf-i-80" value="" style="endArrow=classic;html=1;rounded=0;entryX=0.5;entryY=0;entryDx=0;entryDy=0;" parent="1" target="NJn-q_vK891O38DvYf-i-79" edge="1">
          <mxGeometry width="50" height="50" relative="1" as="geometry">
            <mxPoint x="1310" y="980" as="sourcePoint" />
            <mxPoint x="1380" y="945" as="targetPoint" />
          </mxGeometry>
        </mxCell>
        <mxCell id="NJn-q_vK891O38DvYf-i-81" value="" style="endArrow=classic;html=1;rounded=0;entryX=0.5;entryY=0;entryDx=0;entryDy=0;exitX=0.5;exitY=1;exitDx=0;exitDy=0;" parent="1" source="NJn-q_vK891O38DvYf-i-84" target="NJn-q_vK891O38DvYf-i-78" edge="1">
          <mxGeometry width="50" height="50" relative="1" as="geometry">
            <mxPoint x="1250" y="900" as="sourcePoint" />
            <mxPoint x="1275" y="910" as="targetPoint" />
          </mxGeometry>
        </mxCell>
        <mxCell id="NJn-q_vK891O38DvYf-i-82" value="i_counter [2:0]" style="text;html=1;align=center;verticalAlign=middle;whiteSpace=wrap;rounded=0;" parent="1" vertex="1">
          <mxGeometry x="1270" y="950" width="70" height="30" as="geometry" />
        </mxCell>
        <mxCell id="NJn-q_vK891O38DvYf-i-83" value="" style="endArrow=classic;html=1;rounded=0;exitX=0.5;exitY=0;exitDx=0;exitDy=0;" parent="1" source="NJn-q_vK891O38DvYf-i-77" edge="1">
          <mxGeometry width="50" height="50" relative="1" as="geometry">
            <mxPoint x="1310" y="1180" as="sourcePoint" />
            <mxPoint x="1285" y="1180" as="targetPoint" />
          </mxGeometry>
        </mxCell>
        <mxCell id="NJn-q_vK891O38DvYf-i-84" value="+1" style="rounded=0;whiteSpace=wrap;html=1;" parent="1" vertex="1">
          <mxGeometry x="1230" y="840" width="60" height="60" as="geometry" />
        </mxCell>
        <mxCell id="NJn-q_vK891O38DvYf-i-85" value="" style="triangle;whiteSpace=wrap;html=1;" parent="1" vertex="1">
          <mxGeometry x="1230" y="860" width="20" height="20" as="geometry" />
        </mxCell>
        <mxCell id="NJn-q_vK891O38DvYf-i-86" value="" style="endArrow=classic;html=1;rounded=0;entryX=1.034;entryY=0.583;entryDx=0;entryDy=0;entryPerimeter=0;" parent="1" target="NJn-q_vK891O38DvYf-i-84" edge="1">
          <mxGeometry width="50" height="50" relative="1" as="geometry">
            <mxPoint x="1320" y="875" as="sourcePoint" />
            <mxPoint x="1370" y="870" as="targetPoint" />
          </mxGeometry>
        </mxCell>
        <mxCell id="NJn-q_vK891O38DvYf-i-87" value="start" style="text;html=1;align=center;verticalAlign=middle;whiteSpace=wrap;rounded=0;" parent="1" vertex="1">
          <mxGeometry x="1300" y="850" width="60" height="30" as="geometry" />
        </mxCell>
        <mxCell id="NJn-q_vK891O38DvYf-i-88" value="" style="endArrow=classic;html=1;rounded=0;entryX=0.166;entryY=-0.003;entryDx=0;entryDy=0;entryPerimeter=0;" parent="1" edge="1">
          <mxGeometry width="50" height="50" relative="1" as="geometry">
            <mxPoint x="1260" y="800" as="sourcePoint" />
            <mxPoint x="1260" y="840" as="targetPoint" />
          </mxGeometry>
        </mxCell>
        <mxCell id="NJn-q_vK891O38DvYf-i-89" value="i_counter [2:0]" style="text;html=1;align=center;verticalAlign=middle;whiteSpace=wrap;rounded=0;" parent="1" vertex="1">
          <mxGeometry x="1230" y="770" width="60" height="30" as="geometry" />
        </mxCell>
        <mxCell id="NJn-q_vK891O38DvYf-i-91" value="i_counter [9:0]" style="text;html=1;align=center;verticalAlign=middle;whiteSpace=wrap;rounded=0;" parent="1" vertex="1">
          <mxGeometry x="290" y="680" width="60" height="30" as="geometry" />
        </mxCell>
        <mxCell id="NJn-q_vK891O38DvYf-i-92" style="edgeStyle=orthogonalEdgeStyle;rounded=0;orthogonalLoop=1;jettySize=auto;html=1;exitX=0.5;exitY=1;exitDx=0;exitDy=0;" parent="1" edge="1">
          <mxGeometry relative="1" as="geometry">
            <mxPoint x="980" y="1400" as="sourcePoint" />
            <mxPoint x="980" y="1400" as="targetPoint" />
          </mxGeometry>
        </mxCell>
        <mxCell id="NJn-q_vK891O38DvYf-i-95" value="done_reg" style="text;html=1;align=center;verticalAlign=middle;whiteSpace=wrap;rounded=0;" parent="1" vertex="1">
          <mxGeometry x="360" y="680" width="60" height="30" as="geometry" />
        </mxCell>
        <mxCell id="NJn-q_vK891O38DvYf-i-98" value="i_col [9:0]" style="text;html=1;align=center;verticalAlign=middle;whiteSpace=wrap;rounded=0;" parent="1" vertex="1">
          <mxGeometry x="800" y="870" width="60" height="30" as="geometry" />
        </mxCell>
        <mxCell id="NJn-q_vK891O38DvYf-i-99" value="i_col [9:0]" style="text;html=1;align=center;verticalAlign=middle;whiteSpace=wrap;rounded=0;" parent="1" vertex="1">
          <mxGeometry x="1010" y="1150" width="60" height="30" as="geometry" />
        </mxCell>
        <mxCell id="NJn-q_vK891O38DvYf-i-100" value="i_counter [2:0]" style="text;html=1;align=center;verticalAlign=middle;whiteSpace=wrap;rounded=0;" parent="1" vertex="1">
          <mxGeometry x="1290" y="1150" width="70" height="30" as="geometry" />
        </mxCell>
        <mxCell id="NJn-q_vK891O38DvYf-i-106" value="1" style="rounded=0;whiteSpace=wrap;html=1;" parent="1" vertex="1">
          <mxGeometry x="760" y="160" width="40" height="40" as="geometry" />
        </mxCell>
        <mxCell id="NJn-q_vK891O38DvYf-i-107" value="2" style="rounded=0;whiteSpace=wrap;html=1;fillColor=#dae8fc;strokeColor=#6c8ebf;" parent="1" vertex="1">
          <mxGeometry x="800" y="160" width="40" height="40" as="geometry" />
        </mxCell>
        <mxCell id="NJn-q_vK891O38DvYf-i-108" value="3" style="rounded=0;whiteSpace=wrap;html=1;" parent="1" vertex="1">
          <mxGeometry x="840" y="160" width="40" height="40" as="geometry" />
        </mxCell>
        <mxCell id="NJn-q_vK891O38DvYf-i-111" value="6" style="rounded=0;whiteSpace=wrap;html=1;fillColor=#dae8fc;strokeColor=#6c8ebf;" parent="1" vertex="1">
          <mxGeometry x="760" y="200" width="40" height="40" as="geometry" />
        </mxCell>
        <mxCell id="NJn-q_vK891O38DvYf-i-112" value="7" style="rounded=0;whiteSpace=wrap;html=1;fillColor=#dae8fc;strokeColor=#6c8ebf;" parent="1" vertex="1">
          <mxGeometry x="800" y="200" width="40" height="40" as="geometry" />
        </mxCell>
        <mxCell id="NJn-q_vK891O38DvYf-i-113" value="8" style="rounded=0;whiteSpace=wrap;html=1;fillColor=#dae8fc;strokeColor=#6c8ebf;" parent="1" vertex="1">
          <mxGeometry x="840" y="200" width="40" height="40" as="geometry" />
        </mxCell>
        <mxCell id="NJn-q_vK891O38DvYf-i-116" value="11" style="rounded=0;whiteSpace=wrap;html=1;" parent="1" vertex="1">
          <mxGeometry x="760" y="240" width="40" height="40" as="geometry" />
        </mxCell>
        <mxCell id="NJn-q_vK891O38DvYf-i-117" value="12" style="rounded=0;whiteSpace=wrap;html=1;fillColor=#dae8fc;strokeColor=#6c8ebf;" parent="1" vertex="1">
          <mxGeometry x="800" y="240" width="40" height="40" as="geometry" />
        </mxCell>
        <mxCell id="NJn-q_vK891O38DvYf-i-118" value="13" style="rounded=0;whiteSpace=wrap;html=1;" parent="1" vertex="1">
          <mxGeometry x="840" y="240" width="40" height="40" as="geometry" />
        </mxCell>
        <mxCell id="NJn-q_vK891O38DvYf-i-136" value="" style="endArrow=none;dashed=1;html=1;dashPattern=1 3;strokeWidth=2;rounded=0;entryX=0.203;entryY=-0.001;entryDx=0;entryDy=0;entryPerimeter=0;fillColor=#dae8fc;strokeColor=#6c8ebf;" parent="1" target="NJn-q_vK891O38DvYf-i-105" edge="1">
          <mxGeometry width="50" height="50" relative="1" as="geometry">
            <mxPoint x="160" y="770" as="sourcePoint" />
            <mxPoint x="440" y="462" as="targetPoint" />
            <Array as="points">
              <mxPoint x="440" y="770" />
            </Array>
          </mxGeometry>
        </mxCell>
      </root>
    </mxGraphModel>
  </diagram>
</mxfile>
